<svg xmlns="http://www.w3.org/2000/svg" width="100%" height="100%" viewBox="0 0 73.8 28.5" enable-background="new 0 0 73.8 28.5" fill="#00ec00"><path d="M45.7 5.5c-2.8.7-6.1 1.4-9 1.3-1.7-.1-3.4-.5-5-.8C21.5 3.6 12.2 2.7.9 5.1c-.6.1-1 .7-.9 1.3l.5 3c.1.5.4.8.8 1 .6.1 1.3.6 1.3 1.6.5 11.2 3.4 16.6 14.1 16.4 13.2-.3 16.7-10.9 17.4-15 .4-2.2 1.5-2.4 2.7-2.4 2.2-.1 2.5 1.6 2.8 2.5 4.5 11.5 7.3 14.1 16.8 14.9 14.5 1.3 12.8-9.5 14.8-15.7.3-.9.6-1.5 1.3-1.7.4-.1.8-.5.9-.9l.4-3c.1-.6-.3-1.2-.9-1.3-8.1-1.8-16.5-3-27.2-.3"/><path d="M73.4 6C69.3 2.7 66.1.9 64.2.2c-1.9-.7-6.6 1.4-7.2 2.9s1.9 1.6 3 .5c1.1-1 2.9-2.2 3.9-1.9 1 .4 6.2 6.4 6.2 6.4L73.4 6zM0 6C4.1 2.7 7.3.9 9.2.2c1.9-.7 6.6 1.4 7.2 2.9s-1.9 1.6-3 .5c-1.1-1-2.9-2.2-3.9-1.9-1 .4-6.2 6.4-6.2 6.4L0 6z"/></svg>
