<svg xmlns="http://www.w3.org/2000/svg" width="100%" height="100%" viewBox="102.807 98.415 468.387 252.381" enable-background="new 102.807 98.415 468.387 252.381"><path fill="#ec184f" d="M107.908 226.738c-3.737 0-5.606-2.492-4.983-6.23l11.213-63.538c1.246-6.852 3.114-9.967 7.475-13.082l56.063-41.113c4.36-3.115 7.475-4.36 10.59-4.36 3.737 0 5.606 2.49 4.983 6.852l-20.558 115.24c-.623 3.738-3.115 6.23-6.852 6.23h-57.932zm110.88 0c-3.737 0-5.605-2.492-4.982-6.23l10.59-63.538c1.245-6.852 3.737-9.967 7.474-13.082l56.687-41.113c4.36-3.115 7.475-4.36 9.967-4.36 4.36 0 6.23 2.49 5.606 6.852l-20.557 115.24c-.623 3.738-3.115 6.23-6.853 6.23h-57.93zM369.894 343.944l19.934-115.24c.623-3.74 3.114-6.23 6.853-6.23h58.556c3.737 0 5.606 2.492 4.983 6.23l-11.214 64.16c-1.246 6.23-3.114 9.344-7.475 13.08l-56.062 40.49c-4.36 3.116-7.476 4.36-10.59 4.36-3.738.002-5.607-2.49-4.984-6.85zm110.88 0l19.934-115.24c.623-3.74 3.114-6.23 6.852-6.23h57.933c3.737 0 6.23 2.492 5.606 6.23l-11.214 64.16c-1.246 6.23-3.114 9.344-7.476 13.08l-56.686 40.49c-3.738 3.116-7.476 4.36-9.967 4.36-3.737.002-5.606-2.49-4.983-6.85z"/></svg>
