<svg xmlns="http://www.w3.org/2000/svg" width="100%" height="100%" viewBox="0 0 612 532" enable-background="new 0 0 612 792"><path stroke="#000" stroke-width="7" stroke-miterlimit="10" d="M123.636 3.8c-19.323 0-35.854 13.603-39.204 32.366l-80.288 446.297c-2.092 11.44.976 23.021 8.37 31.811 7.533 9.066 18.834 14.09 30.832 14.09h93.542c.768-1.395 1.814-2.58 3.208-3.766l76.244-72.825c2.511-2.512 5.649-3.837 8.857-3.837 3.07 0 5.791 1.257 7.533 3.487 21.066 22.949 61.665 47.504 112.586 47.504 23.018 0 42.481-5.58 56.432-16.113 12.974-9.835 20.089-23.577 20.089-38.713 0-16.324-8.651-28.602-50.852-35.437l-25.463-3.7c-46.038-6.485-81.682-20.993-105.888-43.177-24.693-22.601-37.18-52.806-37.18-89.846 0-31.878 6.767-61.316 20.161-87.334 7.045-16.881 16.602-49.247 2.022-77.151-1.046-1.952-.976-4.323.21-6.208 1.186-1.884 3.279-3.139 5.441-3.139.906 0 1.813.208 2.721.628 9.626 4.465 25.251 9.836 45.062 9.836 10.115 0 20.369-1.395 30.485-4.186 31.32-14.369 67.312-21.625 107.004-21.625 65.084 0 128.907 21.555 170.694 57.688 3.07 2.511 3.906 5.231 3.975 7.046.143 3.068-1.324 6.207-4.395 9.276l-65.779 75.546c-.067.069-.139.139-.139.209-2.929 2.93-6.419 4.534-9.838 4.534-2.23 0-4.253-.698-6.066-2.022-30.555-23.648-63.131-35.228-99.683-35.228-35.575 0-62.362 20.997-62.362 48.9 0 13.882 6.209 28.949 52.388 35.436l24.694 3.767c68.919 10.253 113.423 36.689 132.396 78.753l56.919-316.342c2.091-11.58-1.047-23.299-8.51-32.228-7.6-9.064-18.761-14.297-30.689-14.297h-445.529z" fill="none"/></svg>
