<svg xmlns="http://www.w3.org/2000/svg" width="100%" height="100%" viewBox="0 0 400 100.7" enable-background="new 0 0 400 100.7"><path d="M399.9 2.8c-.1-.1-.3-.1-.4-.1h-58.1c-.4 0-.7.3-.8.9l-16.6 93.8c0 .2 0 .4.1.5.1.1.2.2.4.2h61c.7 0 .9-.6.9-.9l3.1-17.6c0-.2 0-.4-.1-.5-.1-.1-.3-.1-.4-.1h-37.6c-.6 0-1.4-.3-1.4-1.5v-.1l3-16.5c.3-1.2 1.1-1.3 1.5-1.3h27.8c.6 0 1-.4 1.1-.9l3-17.4c0-.2 0-.4-.1-.5-.1-.1-.3-.1-.4-.1h-27.6c-.6 0-1-.3-1.1-.5-.2-.2-.3-.6-.2-1.1l2.8-15.6c0-.8.7-1.4 1.5-1.4h34.6c.4 0 .8-.3.9-.9l3.2-17.9c0-.2 0-.4-.1-.5zM288.4 60.1h31.1c.9 0 1.6-.6 1.7-1.4l3-17.5c.1-.9-.3-1.4-1.1-1.4h-30.9c-.6 0-.9-.3-.7-.9l2.9-15.7c0-.6.4-.9.9-.9h37.7c.7 0 1.4-.6 1.6-1.4l3.1-17.7c.1-.9-.3-1.4-1.1-1.4h-61.6c-.7 0-1.3.6-1.4 1.4l-16.7 94.5c-.1.9.4 1.4 1.1 1.4h61.4c.9 0 1.4-.6 1.6-1.4l3.1-17.7c.1-.9-.3-1.4-1.1-1.4h-37.8c-.6 0-.7-.3-.7-.9l3-16.6c.1-.7.4-1 .9-1zM256.9 78l-16.9-9.5c-.2-.1-.4-.2-.6-.2-.6 0-1.1.4-1.5 1.2-3.4 5.7-7.6 9.6-13.7 9.6-6.6 0-10.3-4.4-10.3-11.3 0-7.2 4.3-30.9 7.2-36.9 2.9-5.7 7.2-9.3 13.2-9.3 6.4 0 9.3 3.6 10.7 9.4.1.7.5 1.1 1.1 1.1.3 0 .6-.1.9-.2l18.7-7.6c1-.4 1.3-1 1-1.9-3.2-14-13.5-22.4-30-22.4-17.6 0-30.2 7.3-37.8 22.9-5.6 11.2-9.6 37.8-9.6 47.2 0 19.9 12.9 30.6 31.3 30.6 16.5 0 27.8-6.3 36.6-20.8.5-.8.4-1.3-.3-1.9zM194.5 1.7h-21.5c-.9 0-1.4.6-1.6 1.4l-16.7 94.5c-.1.9.4 1.4 1.3 1.4h21.5c.9 0 1.3-.6 1.4-1.4l16.7-94.5c.2-.8-.3-1.4-1.1-1.4zM133.7 1.7h-37.6c-.7 0-1.3.6-1.4 1.4l-16.8 94.5c-.1.9.4 1.4 1.1 1.4h21.6c.7 0 1.3-.6 1.4-1.4l5.6-30.8c0-.6.4-.9 1-.9h13.9c23.6 0 40.9-14 40.9-38.8.1-15.5-9.6-25.4-29.7-25.4zm1.7 40.4c-2.7 2.6-6.3 3.9-10.6 3.9h-12.6c-.5 0-1.2-.2-1.2-1.5v-.1l3.9-21.3c0-.8.7-1.4 1.5-1.4h12.5c6.9 0 10.8 3.5 10.8 9.5-.2 4.5-1.6 8.2-4.3 10.9zM52.7 39.9l-4.7-.8c-4-.6-6.9-1.5-8.7-2.9-1.7-1.3-2.5-3-2.5-5.2 0-2.9 1.4-5.6 3.8-7.6s5.8-3.1 9.4-3.1c7.3 0 13.8 2.3 19.9 7 .1.1.2.1.4.1.3 0 .6-.2.9-.5l12.6-14.4c.3-.3.5-.6.5-.8 0-.1-.1-.3-.3-.4-7.7-6.7-19.6-10.7-31.7-10.7-7.4 0-14.1 1.4-20 4h-.1c-2.1.7-4.2 1-6.2 1-3.9 0-6.9-1-8.9-1.9 1.3 2.6 2.7 7.9-.5 15.6-2.5 4.8-3.7 10.2-3.7 16.1 0 6.7 2.2 12.1 6.7 16.2 4.4 4.1 11 6.7 19.6 7.9l4.9.7c7.7 1.2 10.9 3.6 10.9 8.1 0 3.3-1.6 6.3-4.4 8.5-2.9 2.2-6.9 3.4-11.6 3.4-10.2 0-18.3-4.9-22.5-9.5-.1-.1-.2-.2-.4-.2-.3 0-.6.1-.8.4l-14.6 14c-.6.5-.4 1.2-.2 1.5 3 3.6 8.1 6.9 14.5 9.5 6.8 2.7 14.4 4.2 21.4 4.2 12.7 0 23.5-3.4 31.1-9.7 7.4-6.4 11.5-15.6 11.5-26.7 0-13.2-8.8-21.2-26.3-23.8z"/></svg>
