<svg xmlns="http://www.w3.org/2000/svg" width="100%" height="100%" viewBox="0 0 600 520" enable-background="new 0 0 600 520"><path d="M119.045 0c-19.148 0-35.529 13.479-38.848 32.072l-79.559 442.243c-2.073 11.337.967 22.812 8.294 31.521 7.465 8.985 18.663 13.962 30.552 13.962h92.693c.76-1.381 1.797-2.556 3.179-3.731l75.551-72.164c2.488-2.488 5.598-3.802 8.777-3.802 3.042 0 5.738 1.246 7.465 3.456 20.875 22.741 61.104 47.073 111.563 47.073 22.809 0 42.096-5.53 55.92-15.967 12.855-9.747 19.906-23.364 19.906-38.362 0-16.175-8.572-28.341-50.389-35.115l-25.232-3.666c-45.62-6.426-80.94-20.803-104.926-42.785-24.469-22.395-36.842-52.325-36.842-89.029 0-31.589 6.705-60.759 19.977-86.541 6.981-16.728 16.451-48.8 2.004-76.45-1.037-1.934-.967-4.284.208-6.151s3.25-3.111 5.392-3.111c.898 0 1.797.207 2.696.623 9.539 4.424 25.022 9.747 44.653 9.747 10.023 0 20.183-1.383 30.207-4.148 31.037-14.238 66.701-21.428 106.033-21.428 64.492 0 127.736 21.359 169.143 57.164 3.043 2.489 3.871 5.184 3.939 6.982.141 3.041-1.312 6.151-4.355 9.192l-65.182 74.86c-.066.069-.137.138-.137.208-2.902 2.903-6.361 4.492-9.748 4.492-2.211 0-4.215-.692-6.012-2.004-30.277-23.433-62.557-34.908-98.777-34.908-35.252 0-61.795 20.806-61.795 48.456 0 13.756 6.152 28.686 51.912 35.114l24.469 3.732c68.293 10.16 112.393 36.357 131.193 78.038l56.402-313.469c2.072-11.475-1.037-23.087-8.432-31.935-7.533-8.984-18.593-14.169-30.412-14.169h-441.482z"/></svg>
